<svg xmlns="http://www.w3.org/2000/svg" xmlns:xlink="http://www.w3.org/1999/xlink" contentStyleType="text/css" height="529px" preserveAspectRatio="none" style="width:763px;height:529px;background:#FFFFFF;" version="1.1" viewBox="0 0 763 529" width="763px" zoomAndPan="magnify"><defs/><g><!--class Computador--><g id="elem_Computador"><rect codeLine="2" fill="#F1F1F1" height="243.5625" id="Computador" rx="2.5" ry="2.5" style="stroke:#181818;stroke-width:0.5;" width="749.502" x="7" y="279"/><ellipse cx="333.9937" cy="295" fill="#ADD1B2" rx="11" ry="11" style="stroke:#181818;stroke-width:1.0;"/><path d="M336.9624,300.6406 Q336.3843,300.9375 335.7437,301.0781 Q335.103,301.2344 334.3999,301.2344 Q331.8999,301.2344 330.5718,299.5938 Q329.2593,297.9375 329.2593,294.8125 Q329.2593,291.6875 330.5718,290.0313 Q331.8999,288.375 334.3999,288.375 Q335.103,288.375 335.7437,288.5313 Q336.3999,288.6875 336.9624,288.9844 L336.9624,291.7031 Q336.3374,291.125 335.7437,290.8594 Q335.1499,290.5781 334.5249,290.5781 Q333.1812,290.5781 332.4937,291.6563 Q331.8062,292.7188 331.8062,294.8125 Q331.8062,296.9063 332.4937,297.9844 Q333.1812,299.0469 334.5249,299.0469 Q335.1499,299.0469 335.7437,298.7813 Q336.3374,298.5 336.9624,297.9219 L336.9624,300.6406 Z " fill="#000000"/><text fill="#000000" font-family="sans-serif" font-size="14" lengthAdjust="spacing" textLength="87.0146" x="354.4937" y="299.8467">Computador</text><line style="stroke:#181818;stroke-width:0.5;" x1="8" x2="755.502" y1="311" y2="311"/><rect fill="none" height="6" style="stroke:#C82930;stroke-width:1.0;" width="6" x="15" y="321.6484"/><text fill="#000000" font-family="sans-serif" font-size="14" lengthAdjust="spacing" textLength="95.1973" x="27" y="327.9951">marca: String</text><rect fill="none" height="6" style="stroke:#C82930;stroke-width:1.0;" width="6" x="15" y="337.9453"/><text fill="#000000" font-family="sans-serif" font-size="14" lengthAdjust="spacing" textLength="90.0977" x="27" y="344.292">memoria: int</text><rect fill="none" height="6" style="stroke:#C82930;stroke-width:1.0;" width="6" x="15" y="354.2422"/><text fill="#000000" font-family="sans-serif" font-size="14" lengthAdjust="spacing" textLength="129.5479" x="27" y="360.5889">procesador: String</text><rect fill="none" height="6" style="stroke:#C82930;stroke-width:1.0;" width="6" x="15" y="370.5391"/><text fill="#000000" font-family="sans-serif" font-size="14" lengthAdjust="spacing" textLength="174.8291" x="27" y="376.8857">sistemaOperativo: String</text><rect fill="none" height="6" style="stroke:#C82930;stroke-width:1.0;" width="6" x="15" y="386.8359"/><text fill="#000000" font-family="sans-serif" font-size="14" lengthAdjust="spacing" textLength="100.29" x="27" y="393.1826">precio: double</text><line style="stroke:#181818;stroke-width:0.5;" x1="8" x2="755.502" y1="400.4844" y2="400.4844"/><ellipse cx="18" cy="414.1328" fill="#84BE84" rx="3" ry="3" style="stroke:#038048;stroke-width:1.0;"/><text fill="#000000" font-family="sans-serif" font-size="14" lengthAdjust="spacing" textLength="723.502" x="27" y="417.4795">Computador(marca: String, memoria: int, procesador: String, sistemaOperativo: String, precio: double)</text><ellipse cx="18" cy="430.4297" fill="#84BE84" rx="3" ry="3" style="stroke:#038048;stroke-width:1.0;"/><text fill="#000000" font-family="sans-serif" font-size="14" lengthAdjust="spacing" textLength="127.5518" x="27" y="433.7764">getMarca(): String</text><ellipse cx="18" cy="446.7266" fill="#84BE84" rx="3" ry="3" style="stroke:#038048;stroke-width:1.0;"/><text fill="#000000" font-family="sans-serif" font-size="14" lengthAdjust="spacing" textLength="122.4521" x="27" y="450.0732">getMemoria(): int</text><ellipse cx="18" cy="463.0234" fill="#84BE84" rx="3" ry="3" style="stroke:#038048;stroke-width:1.0;"/><text fill="#000000" font-family="sans-serif" font-size="14" lengthAdjust="spacing" textLength="163.0166" x="27" y="466.3701">getProcesador(): String</text><ellipse cx="18" cy="479.3203" fill="#84BE84" rx="3" ry="3" style="stroke:#038048;stroke-width:1.0;"/><text fill="#000000" font-family="sans-serif" font-size="14" lengthAdjust="spacing" textLength="210.335" x="27" y="482.667">getSistemaOperativo(): String</text><ellipse cx="18" cy="495.6172" fill="#84BE84" rx="3" ry="3" style="stroke:#038048;stroke-width:1.0;"/><text fill="#000000" font-family="sans-serif" font-size="14" lengthAdjust="spacing" textLength="133.7588" x="27" y="498.9639">getPrecio(): double</text><ellipse cx="18" cy="511.9141" fill="#84BE84" rx="3" ry="3" style="stroke:#038048;stroke-width:1.0;"/><text fill="#000000" font-family="sans-serif" font-size="14" lengthAdjust="spacing" textLength="117.708" x="27" y="515.2607">toString(): String</text></g><!--class Tienda--><g id="elem_Tienda"><rect codeLine="18" fill="#F1F1F1" height="194.6719" id="Tienda" rx="2.5" ry="2.5" style="stroke:#181818;stroke-width:0.5;" width="542.3525" x="111" y="7"/><ellipse cx="354.2295" cy="23" fill="#ADD1B2" rx="11" ry="11" style="stroke:#181818;stroke-width:1.0;"/><path d="M357.1982,28.6406 Q356.6201,28.9375 355.9795,29.0781 Q355.3389,29.2344 354.6357,29.2344 Q352.1357,29.2344 350.8076,27.5938 Q349.4951,25.9375 349.4951,22.8125 Q349.4951,19.6875 350.8076,18.0313 Q352.1357,16.375 354.6357,16.375 Q355.3389,16.375 355.9795,16.5313 Q356.6357,16.6875 357.1982,16.9844 L357.1982,19.7031 Q356.5732,19.125 355.9795,18.8594 Q355.3857,18.5781 354.7607,18.5781 Q353.417,18.5781 352.7295,19.6563 Q352.042,20.7188 352.042,22.8125 Q352.042,24.9063 352.7295,25.9844 Q353.417,27.0469 354.7607,27.0469 Q355.3857,27.0469 355.9795,26.7813 Q356.5732,26.5 357.1982,25.9219 L357.1982,28.6406 Z " fill="#000000"/><text fill="#000000" font-family="sans-serif" font-size="14" lengthAdjust="spacing" textLength="47.3936" x="374.7295" y="27.8467">Tienda</text><line style="stroke:#181818;stroke-width:0.5;" x1="112" x2="652.3525" y1="39" y2="39"/><rect fill="none" height="6" style="stroke:#C82930;stroke-width:1.0;" width="6" x="119" y="49.6484"/><text fill="#000000" font-family="sans-serif" font-size="14" lengthAdjust="spacing" textLength="105.2803" x="131" y="55.9951">nombre: String</text><rect fill="none" height="6" style="stroke:#C82930;stroke-width:1.0;" width="6" x="119" y="65.9453"/><text fill="#000000" font-family="sans-serif" font-size="14" lengthAdjust="spacing" textLength="127.8252" x="131" y="72.292">propietario: String</text><rect fill="none" height="6" style="stroke:#C82930;stroke-width:1.0;" width="6" x="119" y="82.2422"/><text fill="#000000" font-family="sans-serif" font-size="14" lengthAdjust="spacing" textLength="207.1289" x="131" y="88.5889">identificadorTributario: String</text><rect fill="none" height="6" style="stroke:#C82930;stroke-width:1.0;" width="6" x="119" y="98.5391"/><text fill="#000000" font-family="sans-serif" font-size="14" lengthAdjust="spacing" textLength="244.959" x="131" y="104.8857">computadores: List&lt;Computador&gt;</text><line style="stroke:#181818;stroke-width:0.5;" x1="112" x2="652.3525" y1="112.1875" y2="112.1875"/><ellipse cx="122" cy="125.8359" fill="#84BE84" rx="3" ry="3" style="stroke:#038048;stroke-width:1.0;"/><text fill="#000000" font-family="sans-serif" font-size="14" lengthAdjust="spacing" textLength="516.3525" x="131" y="129.1826">Tienda(nombre: String, propietario: String, identificadorTributario: String)</text><ellipse cx="122" cy="142.1328" fill="#84BE84" rx="3" ry="3" style="stroke:#038048;stroke-width:1.0;"/><text fill="#000000" font-family="sans-serif" font-size="14" lengthAdjust="spacing" textLength="372.9072" x="131" y="145.4795">agregarComputador(computador: Computador): void</text><ellipse cx="122" cy="158.4297" fill="#84BE84" rx="3" ry="3" style="stroke:#038048;stroke-width:1.0;"/><text fill="#000000" font-family="sans-serif" font-size="14" lengthAdjust="spacing" textLength="289.0576" x="131" y="161.7764">eliminarComputador(marca: String): void</text><ellipse cx="122" cy="174.7266" fill="#84BE84" rx="3" ry="3" style="stroke:#038048;stroke-width:1.0;"/><text fill="#000000" font-family="sans-serif" font-size="14" lengthAdjust="spacing" textLength="336.4033" x="131" y="178.0732">buscarComputador(marca: String): Computador</text><ellipse cx="122" cy="191.0234" fill="#84BE84" rx="3" ry="3" style="stroke:#038048;stroke-width:1.0;"/><text fill="#000000" font-family="sans-serif" font-size="14" lengthAdjust="spacing" textLength="199.6914" x="131" y="194.3701">listarComputadores(): String</text></g><!--reverse link Tienda to Computador--><g id="link_Tienda_Computador"><path codeLine="31" d="M382,214.34 C382,238.81 382,253.4 382,278.91 " fill="none" id="Tienda-backto-Computador" style="stroke:#181818;stroke-width:1.0;"/><polygon fill="#181818" points="382,202.34,378,208.34,382,214.34,386,208.34,382,202.34" style="stroke:#181818;stroke-width:1.0;"/><text fill="#000000" font-family="sans-serif" font-size="13" lengthAdjust="spacing" textLength="56.2847" x="383" y="245.0669">contiene</text><text fill="#000000" font-family="sans-serif" font-size="13" lengthAdjust="spacing" textLength="8.271" x="373.7159" y="221.8298">1</text><text fill="#000000" font-family="sans-serif" font-size="13" lengthAdjust="spacing" textLength="6.5" x="375.8476" y="268.0974">*</text></g><!--SRC=[ZLDBJiCm5Dpd55Os_P0ks4Q83LiGbTeBECaZUb8IHxRJ3KAYuW3SW3DKg8MAZxY2SoES9cdj4A2MlF2yDvfv7dj0r9FwAk_LHgtrVjVxKstLXgWtVLYLotAfLkI2fNaXQSIu4oPK20CWjmxHQq9IoaFgavdacCKj1YdZg57CP0Fbd8KWAcQdLw2GaDBh73YLk62TSiuXH0r6h0WIs84dXesX9UzPobwFgFUhdjUH6ZLQCSYhIcCuifpLXLgjAhMJxl3fNhUFDUiuwEkPxhnK5MjmoUf6WtBdE8EZmfmZP15jWgmF-n0pbWOSVbmzon4avTWD1IF89DvWM8quvnWKVLtXFYKGFhdKKvyTWZjl9ggD36q3Nf-szvzicnYDESIK6u_auCGttew-mmN3g651WYbc5irwMtPtK8ZmprxZwzICHCzlCa0S6Q8ExxbyLAzgIzI7Hb_Kkdne0zIWeTI0xgbBnfC9SSUk-MDzdOY-FyZW6m00]--></g></svg>